# 3ds Max Wavefront OBJ Exporter v0.97b - (c)2007 guruware
# File Created: 06.10.2016 15:23:32

#
# object pSolid1
#

v  0.4934 0.0000 0.8049
v  0.3049 -0.4934 0.5000
v  0.4934 0.0000 0.1951
v  0.3049 0.4934 0.5000
v  0.0000 -0.3049 0.0066
v  0.0000 0.3049 0.0066
v  0.0000 -0.3049 0.9934
v  0.0000 0.3049 0.9934
v  -0.4934 0.0000 0.1951
v  -0.3049 -0.4934 0.5000
v  -0.4934 0.0000 0.8049
v  -0.3049 0.4934 0.5000
# 12 vertices

vn 0.8507 0.0000 0.5257
vn 0.5257 -0.8507 -0.0000
vn 0.8507 0.0000 -0.5257
vn 0.5257 0.8507 -0.0000
vn 0.0000 -0.5257 -0.8507
vn 0.0000 0.5257 -0.8507
vn 0.0000 -0.5257 0.8507
vn 0.0000 0.5257 0.8507
vn -0.8507 0.0000 -0.5257
vn -0.5257 -0.8507 -0.0000
vn -0.8507 0.0000 0.5257
vn -0.5257 0.8507 -0.0000
# 12 vertex normals

vt 0.9091 0.5833 0.0000
vt 0.8182 0.7500 0.0000
vt 0.7273 0.5833 0.0000
vt 0.8182 0.4167 0.0000
vt 0.5455 0.5833 0.0000
vt 0.6364 0.4167 0.0000
vt 0.6364 0.7500 0.0000
vt 0.1818 0.5833 0.0000
vt 0.0000 0.5833 0.0000
vt 0.0909 0.4167 0.0000
vt 0.0909 0.7500 0.0000
vt 1.0000 0.4167 0.0000
vt 0.4545 0.4167 0.0000
vt 0.3636 0.5833 0.0000
vt 0.2727 0.4167 0.0000
vt 0.3636 0.2500 0.0000
vt 0.1818 0.2500 0.0000
vt 0.5455 0.2500 0.0000
vt 0.2727 0.7500 0.0000
vt 0.9091 0.2500 0.0000
vt 0.7273 0.2500 0.0000
vt 0.4545 0.7500 0.0000
# 22 texture coords

g pSolid1
s 1
f 1/1/1 2/2/2 3/3/3 
f 3/3/3 4/4/4 1/1/1 
f 3/3/3 5/5/5 6/6/6 
f 3/3/3 6/6/6 4/4/4 
f 3/3/3 2/7/2 5/5/5 
f 7/8/7 1/9/1 8/10/8 
f 2/11/2 1/9/1 7/8/7 
f 1/1/1 4/4/4 8/12/8 
f 9/13/9 10/14/10 11/15/11 
f 11/15/11 12/16/12 9/13/9 
f 7/8/7 8/10/8 11/15/11 
f 11/15/11 10/14/10 7/8/7 
f 8/10/8 12/17/12 11/15/11 
f 6/6/6 5/5/5 9/13/9 
f 9/13/9 12/18/12 6/6/6 
f 9/13/9 5/5/5 10/14/10 
f 7/8/7 10/14/10 2/19/2 
f 8/12/8 4/4/4 12/20/12 
f 6/6/6 12/21/12 4/4/4 
f 5/5/5 2/22/2 10/14/10 
# 20 faces

